<svg width="1056" height="264" viewBox="0 0 1056 264" fill="none" xmlns="http://www.w3.org/2000/svg">
<path d="M12.707 93.4872V75.9872L82.707 45.1633V65.2983L34.7809 84.5384L35.4272 83.4943V85.9801L34.7809 84.9361L82.707 104.176V124.311L12.707 93.4872ZM958.962 28.4091L926.15 150.312H907.904L940.717 28.4091H958.962ZM1043.29 103.033L973.293 133.857V113.722L1021.22 94.4815L1020.57 95.5256V93.0398L1021.22 94.0838L973.293 74.8438V54.7088L1043.29 85.5327V103.033Z" fill="#4D81EE"/>
<path d="M158.064 33.1818V135H136.537V33.1818H158.064ZM203.517 136.243C197.717 136.243 192.463 134.751 187.757 131.768C183.083 128.752 179.371 124.328 176.62 118.494C173.903 112.628 172.544 105.436 172.544 96.9176C172.544 88.1676 173.952 80.8925 176.77 75.0923C179.587 69.259 183.332 64.9006 188.005 62.017C192.712 59.1004 197.866 57.642 203.467 57.642C207.743 57.642 211.306 58.3712 214.156 59.8295C217.039 61.2547 219.359 63.0445 221.116 65.1989C222.906 67.3201 224.265 69.4081 225.193 71.4631H225.839V33.1818H246.968V135H226.088V122.77H225.193C224.199 124.891 222.79 126.996 220.967 129.084C219.177 131.139 216.841 132.846 213.957 134.205C211.107 135.563 207.627 136.243 203.517 136.243ZM210.228 119.389C213.642 119.389 216.526 118.461 218.879 116.605C221.265 114.716 223.088 112.081 224.348 108.7C225.64 105.32 226.287 101.359 226.287 96.8182C226.287 92.2775 225.657 88.3333 224.397 84.9858C223.138 81.6383 221.315 79.053 218.929 77.2301C216.542 75.4072 213.642 74.4957 210.228 74.4957C206.748 74.4957 203.815 75.4403 201.429 77.3295C199.042 79.2187 197.236 81.8371 196.01 85.1847C194.783 88.5322 194.17 92.41 194.17 96.8182C194.17 101.259 194.783 105.187 196.01 108.601C197.269 111.982 199.075 114.633 201.429 116.555C203.815 118.445 206.748 119.389 210.228 119.389ZM286.157 136.442C281.285 136.442 276.943 135.597 273.131 133.906C269.32 132.183 266.304 129.647 264.083 126.3C261.896 122.919 260.802 118.71 260.802 113.672C260.802 109.429 261.581 105.866 263.138 102.983C264.696 100.099 266.817 97.7794 269.502 96.0227C272.187 94.2661 275.236 92.9403 278.65 92.0455C282.097 91.1506 285.71 90.5208 289.488 90.1562C293.929 89.6922 297.509 89.2614 300.227 88.8636C302.944 88.4328 304.916 87.803 306.143 86.9744C307.369 86.1458 307.982 84.9195 307.982 83.2955V82.9972C307.982 79.8485 306.988 77.4124 304.999 75.6889C303.044 73.9654 300.26 73.1037 296.647 73.1037C292.835 73.1037 289.803 73.9489 287.549 75.6392C285.295 77.2964 283.804 79.3845 283.075 81.9034L263.487 80.3125C264.481 75.6723 266.436 71.6619 269.353 68.2812C272.27 64.8674 276.031 62.249 280.638 60.4261C285.279 58.5701 290.648 57.642 296.746 57.642C300.989 57.642 305.049 58.1392 308.927 59.1335C312.838 60.1278 316.301 61.669 319.317 63.7571C322.367 65.8452 324.77 68.5298 326.526 71.8111C328.283 75.0592 329.161 78.9536 329.161 83.4943V135H309.076V124.411H308.479C307.253 126.797 305.612 128.902 303.558 130.724C301.503 132.514 299.033 133.923 296.15 134.95C293.266 135.945 289.935 136.442 286.157 136.442ZM292.222 121.825C295.338 121.825 298.089 121.212 300.475 119.986C302.862 118.726 304.734 117.036 306.093 114.915C307.452 112.794 308.131 110.391 308.131 107.706V99.6023C307.469 100.033 306.557 100.431 305.397 100.795C304.27 101.127 302.994 101.442 301.569 101.74C300.144 102.005 298.719 102.254 297.293 102.486C295.868 102.685 294.576 102.867 293.415 103.033C290.93 103.397 288.759 103.977 286.903 104.773C285.047 105.568 283.605 106.645 282.577 108.004C281.55 109.33 281.036 110.987 281.036 112.976C281.036 115.859 282.08 118.063 284.168 119.588C286.29 121.08 288.974 121.825 292.222 121.825ZM366.771 90.8523V135H345.592V58.6364H365.777V72.1094H366.672C368.362 67.6681 371.196 64.1548 375.173 61.5696C379.151 58.9512 383.973 57.642 389.641 57.642C394.944 57.642 399.567 58.8021 403.511 61.1222C407.455 63.4422 410.521 66.7566 412.709 71.0653C414.896 75.3409 415.99 80.4451 415.99 86.3778V135H394.811V90.1562C394.844 85.483 393.651 81.8371 391.232 79.2188C388.812 76.5672 385.481 75.2415 381.239 75.2415C378.388 75.2415 375.869 75.8546 373.682 77.081C371.527 78.3073 369.837 80.0971 368.611 82.4503C367.418 84.7704 366.804 87.571 366.771 90.8523ZM433.08 135V33.1818H454.607V117.251H498.257V135H433.08ZM546.917 136.491C539.062 136.491 532.3 134.901 526.633 131.719C520.998 128.504 516.656 123.963 513.607 118.097C510.558 112.197 509.033 105.22 509.033 97.1662C509.033 89.3111 510.558 82.4171 513.607 76.4844C516.656 70.5516 520.949 65.928 526.484 62.6136C532.052 59.2992 538.581 57.642 546.072 57.642C551.11 57.642 555.799 58.4541 560.141 60.0781C564.516 61.669 568.328 64.072 571.576 67.2869C574.857 70.5019 577.409 74.5455 579.232 79.4176C581.055 84.2566 581.967 89.9242 581.967 96.4205V102.237H517.485V89.1122H562.031C562.031 86.063 561.368 83.3617 560.042 81.0085C558.716 78.6553 556.877 76.8158 554.523 75.4901C552.203 74.1312 549.502 73.4517 546.42 73.4517C543.205 73.4517 540.354 74.1974 537.869 75.6889C535.416 77.1473 533.494 79.1193 532.102 81.6051C530.71 84.0578 529.997 86.7921 529.964 89.8082V102.287C529.964 106.065 530.66 109.33 532.052 112.081C533.477 114.832 535.482 116.953 538.067 118.445C540.653 119.936 543.719 120.682 547.265 120.682C549.618 120.682 551.772 120.35 553.728 119.688C555.683 119.025 557.357 118.03 558.749 116.705C560.141 115.379 561.202 113.755 561.931 111.832L581.519 113.125C580.525 117.831 578.487 121.941 575.404 125.455C572.355 128.935 568.411 131.652 563.572 133.608C558.766 135.53 553.214 136.491 546.917 136.491ZM664.93 58.6364L638.233 135H614.369L587.672 58.6364H610.044L625.903 113.274H626.699L642.508 58.6364H664.93ZM675.768 135V58.6364H696.947V135H675.768ZM686.407 48.7926C683.259 48.7926 680.557 47.7486 678.304 45.6605C676.083 43.5393 674.973 41.0038 674.973 38.054C674.973 35.1373 676.083 32.6349 678.304 30.5469C680.557 28.4257 683.259 27.3651 686.407 27.3651C689.556 27.3651 692.241 28.4257 694.461 30.5469C696.715 32.6349 697.842 35.1373 697.842 38.054C697.842 41.0038 696.715 43.5393 694.461 45.6605C692.241 47.7486 689.556 48.7926 686.407 48.7926ZM735.688 136.442C730.816 136.442 726.474 135.597 722.663 133.906C718.851 132.183 715.835 129.647 713.614 126.3C711.427 122.919 710.333 118.71 710.333 113.672C710.333 109.429 711.112 105.866 712.67 102.983C714.228 100.099 716.349 97.7794 719.033 96.0227C721.718 94.2661 724.767 92.9403 728.181 92.0455C731.628 91.1506 735.241 90.5208 739.019 90.1562C743.46 89.6922 747.04 89.2614 749.758 88.8636C752.476 88.4328 754.448 87.803 755.674 86.9744C756.9 86.1458 757.513 84.9195 757.513 83.2955V82.9972C757.513 79.8485 756.519 77.4124 754.531 75.6889C752.575 73.9654 749.791 73.1037 746.178 73.1037C742.367 73.1037 739.334 73.9489 737.08 75.6392C734.826 77.2964 733.335 79.3845 732.606 81.9034L713.018 80.3125C714.012 75.6723 715.968 71.6619 718.884 68.2812C721.801 64.8674 725.563 62.249 730.17 60.4261C734.81 58.5701 740.179 57.642 746.278 57.642C750.52 57.642 754.58 58.1392 758.458 59.1335C762.369 60.1278 765.833 61.669 768.849 63.7571C771.898 65.8452 774.301 68.5298 776.058 71.8111C777.814 75.0592 778.692 78.9536 778.692 83.4943V135H758.607V124.411H758.011C756.784 126.797 755.144 128.902 753.089 130.724C751.034 132.514 748.565 133.923 745.681 134.95C742.798 135.945 739.467 136.442 735.688 136.442ZM741.754 121.825C744.869 121.825 747.62 121.212 750.006 119.986C752.393 118.726 754.265 117.036 755.624 114.915C756.983 112.794 757.663 110.391 757.663 107.706V99.6023C757 100.033 756.088 100.431 754.928 100.795C753.801 101.127 752.525 101.442 751.1 101.74C749.675 102.005 748.25 102.254 746.825 102.486C745.399 102.685 744.107 102.867 742.947 103.033C740.461 103.397 738.29 103.977 736.434 104.773C734.578 105.568 733.136 106.645 732.109 108.004C731.081 109.33 730.567 110.987 730.567 112.976C730.567 115.859 731.612 118.063 733.7 119.588C735.821 121.08 738.505 121.825 741.754 121.825ZM816.303 90.8523V135H795.124V58.6364H815.308V72.1094H816.203C817.893 67.6681 820.727 64.1548 824.705 61.5696C828.682 58.9512 833.504 57.642 839.172 57.642C844.475 57.642 849.098 58.8021 853.043 61.1222C856.987 63.4422 860.053 66.7566 862.24 71.0653C864.428 75.3409 865.521 80.4451 865.521 86.3778V135H844.342V90.1562C844.375 85.483 843.182 81.8371 840.763 79.2188C838.343 76.5672 835.012 75.2415 830.77 75.2415C827.92 75.2415 825.401 75.8546 823.213 77.081C821.059 78.3073 819.368 80.0971 818.142 82.4503C816.949 84.7704 816.336 87.571 816.303 90.8523Z" fill="white"/>
<path d="M112.032 247L97.6732 196.818H109.263L117.569 231.686H117.986L127.15 196.818H137.074L146.213 231.759H146.654L154.961 196.818H166.551L152.192 247H141.852L132.296 214.191H131.904L122.372 247H112.032ZM185.142 247.735C181.271 247.735 177.938 246.951 175.145 245.383C172.368 243.798 170.228 241.56 168.725 238.669C167.222 235.761 166.471 232.323 166.471 228.353C166.471 224.482 167.222 221.084 168.725 218.16C170.228 215.236 172.344 212.957 175.072 211.324C177.816 209.69 181.034 208.874 184.726 208.874C187.209 208.874 189.52 209.274 191.66 210.074C193.816 210.858 195.695 212.043 197.296 213.627C198.913 215.212 200.171 217.205 201.069 219.606C201.967 221.991 202.417 224.784 202.417 227.986V230.853H170.636V224.384H192.591C192.591 222.881 192.264 221.55 191.611 220.39C190.958 219.23 190.051 218.324 188.891 217.67C187.748 217 186.416 216.665 184.897 216.665C183.313 216.665 181.908 217.033 180.683 217.768C179.474 218.487 178.526 219.459 177.84 220.684C177.154 221.893 176.803 223.24 176.787 224.727V230.877C176.787 232.739 177.13 234.348 177.816 235.704C178.518 237.06 179.507 238.105 180.781 238.841C182.055 239.576 183.566 239.943 185.314 239.943C186.474 239.943 187.535 239.78 188.499 239.453C189.463 239.126 190.288 238.636 190.974 237.983C191.66 237.33 192.183 236.529 192.542 235.582L202.196 236.219C201.706 238.538 200.701 240.564 199.182 242.295C197.679 244.011 195.736 245.35 193.351 246.314C190.982 247.261 188.246 247.735 185.142 247.735ZM209.424 247V196.818H219.863V215.685H220.181C220.639 214.673 221.3 213.643 222.166 212.598C223.048 211.536 224.192 210.654 225.596 209.952C227.018 209.233 228.782 208.874 230.889 208.874C233.633 208.874 236.165 209.592 238.485 211.03C240.804 212.451 242.659 214.599 244.047 217.474C245.436 220.333 246.13 223.918 246.13 228.231C246.13 232.429 245.452 235.974 244.096 238.865C242.757 241.74 240.927 243.921 238.607 245.407C236.304 246.877 233.723 247.613 230.864 247.613C228.839 247.613 227.116 247.278 225.694 246.608C224.29 245.938 223.138 245.097 222.239 244.084C221.341 243.055 220.655 242.018 220.181 240.972H219.716V247H209.424ZM219.642 228.182C219.642 230.42 219.953 232.372 220.573 234.038C221.194 235.704 222.092 237.003 223.269 237.934C224.445 238.849 225.874 239.306 227.557 239.306C229.255 239.306 230.693 238.841 231.869 237.909C233.045 236.962 233.936 235.655 234.54 233.989C235.161 232.306 235.471 230.371 235.471 228.182C235.471 226.009 235.169 224.098 234.564 222.448C233.96 220.798 233.07 219.508 231.894 218.577C230.717 217.646 229.272 217.18 227.557 217.18C225.858 217.18 224.42 217.629 223.244 218.528C222.084 219.426 221.194 220.7 220.573 222.35C219.953 224 219.642 225.944 219.642 228.182ZM284.452 247.735C280.989 247.735 278 247.114 275.484 245.873C272.969 244.631 271.033 242.949 269.677 240.825C268.337 238.685 267.668 236.3 267.668 233.67C267.668 231.71 268.06 229.971 268.844 228.451C269.628 226.932 270.722 225.536 272.127 224.261C273.532 222.971 275.166 221.689 277.028 220.414L286.755 214.019C288.013 213.219 288.936 212.377 289.524 211.495C290.112 210.597 290.406 209.625 290.406 208.58C290.406 207.583 290.006 206.66 289.206 205.811C288.405 204.961 287.27 204.545 285.8 204.561C284.82 204.561 283.97 204.782 283.252 205.223C282.533 205.647 281.969 206.211 281.561 206.913C281.169 207.599 280.973 208.367 280.973 209.217C280.973 210.262 281.267 211.324 281.855 212.402C282.443 213.48 283.227 214.624 284.207 215.832C285.187 217.025 286.257 218.315 287.417 219.704L311.209 247H300.33L280.483 224.898C279.176 223.412 277.869 221.86 276.562 220.243C275.272 218.609 274.194 216.878 273.328 215.048C272.462 213.202 272.029 211.201 272.029 209.045C272.029 206.611 272.593 204.422 273.72 202.478C274.863 200.534 276.464 198.999 278.523 197.872C280.581 196.728 282.982 196.157 285.726 196.157C288.405 196.157 290.717 196.704 292.661 197.798C294.621 198.876 296.124 200.314 297.169 202.111C298.231 203.891 298.762 205.852 298.762 207.991C298.762 210.36 298.174 212.508 296.998 214.436C295.838 216.347 294.204 218.062 292.097 219.581L281.855 226.957C280.466 227.969 279.437 229.007 278.768 230.069C278.114 231.114 277.787 232.119 277.787 233.082C277.787 234.275 278.081 235.345 278.67 236.292C279.258 237.24 280.091 237.991 281.169 238.547C282.247 239.086 283.513 239.355 284.967 239.355C286.731 239.355 288.471 238.955 290.186 238.154C291.917 237.338 293.486 236.186 294.89 234.7C296.312 233.197 297.447 231.416 298.296 229.358C299.146 227.3 299.57 225.021 299.57 222.522H308.22C308.22 225.593 307.885 228.362 307.215 230.828C306.546 233.278 305.614 235.418 304.422 237.248C303.23 239.061 301.866 240.548 300.33 241.707C299.84 242.018 299.366 242.312 298.909 242.589C298.451 242.867 297.978 243.161 297.488 243.472C295.625 244.974 293.543 246.061 291.239 246.73C288.953 247.4 286.69 247.735 284.452 247.735ZM331.724 196.818H344.809L358.628 230.534H359.216L373.036 196.818H386.121V247H375.829V214.338H375.413L362.426 246.755H355.419L342.432 214.215H342.015V247H331.724V196.818ZM411.671 247.735C407.865 247.735 404.573 246.926 401.796 245.309C399.036 243.676 396.904 241.405 395.401 238.498C393.898 235.574 393.147 232.184 393.147 228.329C393.147 224.441 393.898 221.043 395.401 218.136C396.904 215.212 399.036 212.941 401.796 211.324C404.573 209.69 407.865 208.874 411.671 208.874C415.477 208.874 418.76 209.69 421.521 211.324C424.298 212.941 426.438 215.212 427.941 218.136C429.444 221.043 430.195 224.441 430.195 228.329C430.195 232.184 429.444 235.574 427.941 238.498C426.438 241.405 424.298 243.676 421.521 245.309C418.76 246.926 415.477 247.735 411.671 247.735ZM411.72 239.649C413.451 239.649 414.897 239.159 416.057 238.179C417.217 237.183 418.091 235.827 418.679 234.112C419.283 232.396 419.585 230.444 419.585 228.255C419.585 226.066 419.283 224.114 418.679 222.399C418.091 220.684 417.217 219.328 416.057 218.332C414.897 217.335 413.451 216.837 411.72 216.837C409.972 216.837 408.502 217.335 407.309 218.332C406.133 219.328 405.243 220.684 404.639 222.399C404.051 224.114 403.757 226.066 403.757 228.255C403.757 230.444 404.051 232.396 404.639 234.112C405.243 235.827 406.133 237.183 407.309 238.179C408.502 239.159 409.972 239.649 411.72 239.649ZM437.178 247V196.818H447.617V215.685H447.935C448.393 214.673 449.054 213.643 449.92 212.598C450.802 211.536 451.945 210.654 453.35 209.952C454.771 209.233 456.536 208.874 458.643 208.874C461.387 208.874 463.919 209.592 466.239 211.03C468.558 212.451 470.412 214.599 471.801 217.474C473.189 220.333 473.884 223.918 473.884 228.231C473.884 232.429 473.206 235.974 471.85 238.865C470.51 241.74 468.681 243.921 466.361 245.407C464.058 246.877 461.477 247.613 458.618 247.613C456.593 247.613 454.869 247.278 453.448 246.608C452.043 245.938 450.892 245.097 449.993 244.084C449.095 243.055 448.409 242.018 447.935 240.972H447.47V247H437.178ZM447.396 228.182C447.396 230.42 447.706 232.372 448.327 234.038C448.948 235.704 449.846 237.003 451.023 237.934C452.199 238.849 453.628 239.306 455.311 239.306C457.009 239.306 458.447 238.841 459.623 237.909C460.799 236.962 461.689 235.655 462.294 233.989C462.915 232.306 463.225 230.371 463.225 228.182C463.225 226.009 462.923 224.098 462.318 222.448C461.714 220.798 460.824 219.508 459.648 218.577C458.471 217.646 457.026 217.18 455.311 217.18C453.612 217.18 452.174 217.629 450.998 218.528C449.838 219.426 448.948 220.7 448.327 222.35C447.706 224 447.396 225.944 447.396 228.182ZM480.849 247V209.364H491.287V247H480.849ZM486.092 204.512C484.54 204.512 483.209 203.998 482.098 202.968C481.004 201.923 480.457 200.673 480.457 199.219C480.457 197.782 481.004 196.549 482.098 195.52C483.209 194.474 484.54 193.951 486.092 193.951C487.644 193.951 488.967 194.474 490.062 195.52C491.172 196.549 491.728 197.782 491.728 199.219C491.728 200.673 491.172 201.923 490.062 202.968C488.967 203.998 487.644 204.512 486.092 204.512ZM510.087 196.818V247H499.648V196.818H510.087ZM535.6 247.735C531.729 247.735 528.396 246.951 525.603 245.383C522.826 243.798 520.686 241.56 519.183 238.669C517.68 235.761 516.929 232.323 516.929 228.353C516.929 224.482 517.68 221.084 519.183 218.16C520.686 215.236 522.802 212.957 525.53 211.324C528.274 209.69 531.492 208.874 535.184 208.874C537.667 208.874 539.978 209.274 542.118 210.074C544.274 210.858 546.153 212.043 547.754 213.627C549.371 215.212 550.629 217.205 551.527 219.606C552.425 221.991 552.875 224.784 552.875 227.986V230.853H521.095V224.384H543.049C543.049 222.881 542.722 221.55 542.069 220.39C541.416 219.23 540.509 218.324 539.349 217.67C538.206 217 536.874 216.665 535.355 216.665C533.771 216.665 532.366 217.033 531.141 217.768C529.932 218.487 528.984 219.459 528.298 220.684C527.612 221.893 527.261 223.24 527.245 224.727V230.877C527.245 232.739 527.588 234.348 528.274 235.704C528.976 237.06 529.965 238.105 531.239 238.841C532.513 239.576 534.024 239.943 535.772 239.943C536.932 239.943 537.993 239.78 538.957 239.453C539.921 239.126 540.746 238.636 541.432 237.983C542.118 237.33 542.641 236.529 543 235.582L552.654 236.219C552.164 238.538 551.159 240.564 549.64 242.295C548.137 244.011 546.194 245.35 543.809 246.314C541.44 247.261 538.704 247.735 535.6 247.735ZM593.641 247H575.852V196.818H593.788C598.836 196.818 603.181 197.823 606.824 199.832C610.467 201.825 613.268 204.692 615.228 208.433C617.205 212.173 618.193 216.649 618.193 221.86C618.193 227.087 617.205 231.58 615.228 235.337C613.268 239.094 610.45 241.977 606.775 243.986C603.116 245.995 598.738 247 593.641 247ZM586.462 237.909H593.2C596.337 237.909 598.975 237.354 601.115 236.243C603.271 235.116 604.888 233.376 605.966 231.024C607.061 228.656 607.608 225.601 607.608 221.86C607.608 218.152 607.061 215.122 605.966 212.77C604.888 210.417 603.279 208.686 601.139 207.575C598.999 206.464 596.361 205.909 593.225 205.909H586.462V237.909ZM643.008 247.735C639.137 247.735 635.805 246.951 633.011 245.383C630.234 243.798 628.094 241.56 626.591 238.669C625.089 235.761 624.337 232.323 624.337 228.353C624.337 224.482 625.089 221.084 626.591 218.16C628.094 215.236 630.21 212.957 632.938 211.324C635.682 209.69 638.9 208.874 642.592 208.874C645.075 208.874 647.386 209.274 649.526 210.074C651.682 210.858 653.561 212.043 655.162 213.627C656.779 215.212 658.037 217.205 658.935 219.606C659.834 221.991 660.283 224.784 660.283 227.986V230.853H628.503V224.384H650.457C650.457 222.881 650.131 221.55 649.477 220.39C648.824 219.23 647.917 218.324 646.757 217.67C645.614 217 644.283 216.665 642.763 216.665C641.179 216.665 639.774 217.033 638.549 217.768C637.34 218.487 636.393 219.459 635.707 220.684C635.02 221.893 634.669 223.24 634.653 224.727V230.877C634.653 232.739 634.996 234.348 635.682 235.704C636.384 237.06 637.373 238.105 638.647 238.841C639.921 239.576 641.432 239.943 643.18 239.943C644.34 239.943 645.402 239.78 646.365 239.453C647.329 239.126 648.154 238.636 648.84 237.983C649.526 237.33 650.049 236.529 650.408 235.582L660.062 236.219C659.572 238.538 658.568 240.564 657.049 242.295C655.546 244.011 653.602 245.35 651.217 246.314C648.848 247.261 646.112 247.735 643.008 247.735ZM701.172 209.364L688.014 247H676.253L663.095 209.364H674.121L681.937 236.292H682.329L690.121 209.364H701.172ZM722.453 247.735C718.581 247.735 715.249 246.951 712.456 245.383C709.679 243.798 707.539 241.56 706.036 238.669C704.533 235.761 703.782 232.323 703.782 228.353C703.782 224.482 704.533 221.084 706.036 218.16C707.539 215.236 709.654 212.957 712.382 211.324C715.126 209.69 718.344 208.874 722.036 208.874C724.519 208.874 726.831 209.274 728.97 210.074C731.127 210.858 733.005 212.043 734.606 213.627C736.223 215.212 737.481 217.205 738.38 219.606C739.278 221.991 739.727 224.784 739.727 227.986V230.853H707.947V224.384H729.902C729.902 222.881 729.575 221.55 728.921 220.39C728.268 219.23 727.361 218.324 726.202 217.67C725.058 217 723.727 216.665 722.208 216.665C720.623 216.665 719.218 217.033 717.993 217.768C716.784 218.487 715.837 219.459 715.151 220.684C714.465 221.893 714.114 223.24 714.097 224.727V230.877C714.097 232.739 714.44 234.348 715.126 235.704C715.829 237.06 716.817 238.105 718.091 238.841C719.365 239.576 720.876 239.943 722.624 239.943C723.784 239.943 724.846 239.78 725.81 239.453C726.773 239.126 727.598 238.636 728.284 237.983C728.97 237.33 729.493 236.529 729.853 235.582L739.507 236.219C739.017 238.538 738.012 240.564 736.493 242.295C734.99 244.011 733.046 245.35 730.661 246.314C728.293 247.261 725.556 247.735 722.453 247.735ZM756.977 196.818V247H746.539V196.818H756.977ZM782.344 247.735C778.538 247.735 775.246 246.926 772.469 245.309C769.708 243.676 767.577 241.405 766.074 238.498C764.571 235.574 763.82 232.184 763.82 228.329C763.82 224.441 764.571 221.043 766.074 218.136C767.577 215.212 769.708 212.941 772.469 211.324C775.246 209.69 778.538 208.874 782.344 208.874C786.15 208.874 789.433 209.69 792.194 211.324C794.971 212.941 797.111 215.212 798.614 218.136C800.117 221.043 800.868 224.441 800.868 228.329C800.868 232.184 800.117 235.574 798.614 238.498C797.111 241.405 794.971 243.676 792.194 245.309C789.433 246.926 786.15 247.735 782.344 247.735ZM782.393 239.649C784.124 239.649 785.57 239.159 786.73 238.179C787.89 237.183 788.764 235.827 789.352 234.112C789.956 232.396 790.258 230.444 790.258 228.255C790.258 226.066 789.956 224.114 789.352 222.399C788.764 220.684 787.89 219.328 786.73 218.332C785.57 217.335 784.124 216.837 782.393 216.837C780.645 216.837 779.175 217.335 777.982 218.332C776.806 219.328 775.916 220.684 775.311 222.399C774.723 224.114 774.429 226.066 774.429 228.255C774.429 230.444 774.723 232.396 775.311 234.112C775.916 235.827 776.806 237.183 777.982 238.179C779.175 239.159 780.645 239.649 782.393 239.649ZM807.655 261.114V209.364H817.946V215.685H818.412C818.869 214.673 819.531 213.643 820.397 212.598C821.279 211.536 822.422 210.654 823.827 209.952C825.248 209.233 827.012 208.874 829.12 208.874C831.864 208.874 834.396 209.592 836.716 211.03C839.035 212.451 840.889 214.599 842.278 217.474C843.666 220.333 844.36 223.918 844.36 228.231C844.36 232.429 843.683 235.974 842.327 238.865C840.987 241.74 839.158 243.921 836.838 245.407C834.535 246.877 831.954 247.613 829.095 247.613C827.07 247.613 825.346 247.278 823.925 246.608C822.52 245.938 821.369 245.097 820.47 244.084C819.572 243.055 818.886 242.018 818.412 240.972H818.093V261.114H807.655ZM817.873 228.182C817.873 230.42 818.183 232.372 818.804 234.038C819.425 235.704 820.323 237.003 821.499 237.934C822.675 238.849 824.105 239.306 825.787 239.306C827.486 239.306 828.924 238.841 830.1 237.909C831.276 236.962 832.166 235.655 832.771 233.989C833.391 232.306 833.702 230.371 833.702 228.182C833.702 226.009 833.4 224.098 832.795 222.448C832.191 220.798 831.3 219.508 830.124 218.577C828.948 217.646 827.503 217.18 825.787 217.18C824.088 217.18 822.651 217.629 821.475 218.528C820.315 219.426 819.425 220.7 818.804 222.35C818.183 224 817.873 225.944 817.873 228.182ZM868.471 247.735C864.6 247.735 861.267 246.951 858.474 245.383C855.697 243.798 853.557 241.56 852.054 238.669C850.552 235.761 849.8 232.323 849.8 228.353C849.8 224.482 850.552 221.084 852.054 218.16C853.557 215.236 855.673 212.957 858.401 211.324C861.145 209.69 864.363 208.874 868.055 208.874C870.538 208.874 872.849 209.274 874.989 210.074C877.145 210.858 879.024 212.043 880.625 213.627C882.242 215.212 883.5 217.205 884.398 219.606C885.297 221.991 885.746 224.784 885.746 227.986V230.853H853.966V224.384H875.92C875.92 222.881 875.593 221.55 874.94 220.39C874.287 219.23 873.38 218.324 872.22 217.67C871.077 217 869.745 216.665 868.226 216.665C866.642 216.665 865.237 217.033 864.012 217.768C862.803 218.487 861.856 219.459 861.169 220.684C860.483 221.893 860.132 223.24 860.116 224.727V230.877C860.116 232.739 860.459 234.348 861.145 235.704C861.847 237.06 862.836 238.105 864.11 238.841C865.384 239.576 866.895 239.943 868.643 239.943C869.803 239.943 870.864 239.78 871.828 239.453C872.792 239.126 873.617 238.636 874.303 237.983C874.989 237.33 875.512 236.529 875.871 235.582L885.525 236.219C885.035 238.538 884.031 240.564 882.511 242.295C881.009 244.011 879.065 245.35 876.68 246.314C874.311 247.261 871.575 247.735 868.471 247.735ZM892.558 247V209.364H902.677V215.93H903.069C903.755 213.594 904.907 211.83 906.524 210.638C908.141 209.429 910.004 208.825 912.111 208.825C912.634 208.825 913.197 208.857 913.802 208.923C914.406 208.988 914.937 209.078 915.394 209.192V218.454C914.904 218.307 914.226 218.176 913.36 218.062C912.495 217.948 911.702 217.891 910.984 217.891C909.448 217.891 908.076 218.225 906.867 218.895C905.675 219.549 904.727 220.463 904.025 221.64C903.339 222.816 902.996 224.172 902.996 225.707V247H892.558Z" fill="white"/>
</svg>
